<?xml version="1.0" encoding="utf-8"?>
<!-- Generator: Adobe Illustrator 25.2.0, SVG Export Plug-In . SVG Version: 6.00 Build 0)  -->
<svg version="1.1" id="Layer_1" xmlns="http://www.w3.org/2000/svg" xmlns:xlink="http://www.w3.org/1999/xlink" x="0px" y="0px"
	 viewBox="0 0 630 188" style="enable-background:new 0 0 630 188;" xml:space="preserve">
<style type="text/css">
	.st0{fill:#F9BC15;}
	.st1{fill:#EA4435;}
	.st2{fill:#EA3E2E;}
	.st3{fill:#547DBF;}
	.st4{fill:#34A851;}
</style>
<path class="st0" d="M306.9,167c-29.3,0-51.7-22.4-51.8-51.7c-0.1-29.6,22.5-51.9,52.5-51.7c29.5,0.1,51.7,22.3,51.7,51.6
	C359.3,144.8,336.8,167,306.9,167z M277.2,115.2c0,18.2,12.8,32.2,29.7,32.4c17.1,0.2,30.8-14.5,30.6-32.6c-0.2-18-13.5-32-30.4-32
	C290.2,83.1,277.3,97,277.2,115.2z"/>
<path class="st1" d="M199.9,167c-29.3,0-51.7-22.4-51.8-51.7c-0.1-29.6,22.5-51.9,52.5-51.7c29.5,0.1,51.7,22.3,51.7,51.6
	C252.3,144.8,229.8,167,199.9,167z M170.2,115.2c0,18.2,12.8,32.2,29.7,32.4c17.1,0.2,30.8-14.5,30.6-32.6c-0.2-18-13.5-32-30.4-32
	C183.2,83.1,170.3,97,170.2,115.2z"/>
<path class="st2" d="M530.7,130.8c11.3,21.6,34.3,22.7,52.5,2.8c5.4,3.6,10.9,7.2,16.8,11.1c-11.8,16.3-27.2,23.7-46.6,22.6
	c-19.6-1.1-34.1-10.4-43.1-27.8c-9.9-19.1-7.1-44.2,6.8-60C530.6,64,548,59.3,567.5,64.7c17.9,5,27.1,19,33.5,36.7
	C577.8,111.1,554.5,120.8,530.7,130.8z M574.5,94.2c-5.6-10.9-16.7-14.9-28.1-10.8c-13.2,4.7-21.1,17.5-18.1,30.1
	C543.8,107.1,559.1,100.7,574.5,94.2z"/>
<path class="st3" d="M123.8,95.4c7.7-6.2,12-15.6,12-27c0-22.6-17.1-36.7-44.5-36.7H34.8v135h56.7c31.5,0,50.3-14.7,50.3-39.3
	C141.9,113.1,135.3,101.8,123.8,95.4z M91.1,87H55.2V51.8h35.9c11.1,0,24.4,3,24.4,17.4C115.4,83.9,102.2,87,91.1,87z M55.2,107.2
	h35.9c11.4,0,30.5,2.5,30.5,19.3c0,16.5-16.6,20-30.5,20H55.2V107.2z"/>
<polygon class="st3" points="464.1,62.7 437.1,62.7 392.6,107.3 392.6,24.2 372.3,24.2 372.3,166.6 392.6,166.6 392.6,136.1 
	408.3,119.9 441.5,166.6 465.7,166.6 422.8,105.2 "/>
<rect x="468.4" y="24.2" class="st4" width="20.3" height="142.5"/>
</svg>
